# Blender 3.5.0
# www.blender.org
mtllib 矢印.mtl
o 立方体.001
v 0.456170 -0.513754 -0.236786
v 0.456170 -0.513754 0.234752
v 0.456170 0.486246 -0.236787
v 0.456170 0.486246 0.234752
v 1.125463 -0.013754 -0.236786
v 1.125463 -0.013754 0.234752
v 0.456170 0.111246 -0.236786
v 0.456170 0.111246 0.234752
v 0.456170 -0.138754 0.234752
v 0.456170 -0.138754 -0.236786
v 0.454877 0.111757 0.113711
v 0.454877 -0.138591 0.113712
v 0.454877 0.111757 -0.114729
v 0.454877 -0.138591 -0.114728
v -0.901987 0.112268 -0.110555
v -0.901987 -0.138429 0.110555
v -0.901987 0.112268 0.110555
v -0.901987 -0.138429 -0.110555
v -0.010783 -0.138429 0.055278
v -0.361467 -0.138429 0.055278
v -0.010783 -0.138429 -0.055277
v -0.361467 -0.138429 -0.055277
v -0.010783 -1.283867 0.055278
v -0.361467 -1.283867 0.055278
v -0.010783 -1.283867 -0.055277
v -0.361467 -1.283867 -0.055277
vn -0.0000 -0.0000 -1.0000
vn 0.5985 -0.8011 -0.0000
vn -0.0000 -0.0000 1.0000
vn 0.5985 0.8011 -0.0000
vn -1.0000 -0.0026 -0.0000
vn -1.0000 0.0026 -0.0000
vn -0.0023 -0.0000 1.0000
vn -0.0031 -0.0000 -1.0000
vn -1.0000 -0.0000 -0.0000
vn -0.0000 1.0000 -0.0000
vn 0.0004 1.0000 -0.0000
vn -0.0001 -1.0000 -0.0000
vn 1.0000 -0.0000 -0.0000
vn -0.0000 -1.0000 -0.0000
vn -0.9999 -0.0000 -0.0106
vn -0.9999 -0.0000 0.0107
vt 0.693359 0.083984
vt 0.943359 0.083984
vt 0.693359 0.333984
vt 0.943359 0.333984
vt 0.693359 0.708984
vt 0.943359 0.708984
vt 0.693359 0.240234
vt 0.943359 0.240234
vt 0.943359 0.177734
vt 0.693359 0.177734
vt 0.455078 0.500000
vt 0.880859 0.240234
vt 0.455078 0.750000
vt 0.880859 0.177734
vt 0.205078 0.500000
vt 0.755859 0.240234
vt 0.205078 0.750000
vt 0.755859 0.177734
vt 0.017578 0.500000
vt 0.205078 0.312500
vt 0.642578 0.750000
vt 0.455078 0.937500
vt 0.642578 0.500000
vt 0.455078 0.312500
vt 0.017578 0.750000
vt 0.205078 0.937500
vt 0.906250 0.828125
vt 0.906250 0.859375
vt 0.781250 0.828125
vt 0.781250 0.859375
vt 0.906250 0.828125
vt 0.906250 0.859375
vt 0.781250 0.828125
vt 0.781250 0.859375
s 0
usemtl マテリアル
f 3/3/1 5/5/1 1/1/1 10/10/1 7/7/1
f 5/5/2 6/6/2 2/2/2 1/1/2
f 6/6/3 4/4/3 8/8/3 9/9/3 2/2/3
f 5/5/4 3/3/4 4/4/4 6/6/4
f 2/2/5 9/9/5 12/14/5 14/18/5 10/10/5 1/1/5
f 4/4/6 3/3/6 7/7/6 13/16/6 11/12/6 8/8/6
f 17/23/7 16/21/7 12/13/7 11/11/7
f 14/17/8 18/25/8 15/19/8 13/15/8
f 16/22/9 17/23/9 15/19/9 18/25/9
f 19/27/10 21/29/10 22/30/10 20/28/10
f 15/20/11 17/24/11 11/11/11 13/15/11
f 12/13/12 16/22/12 18/26/12 14/17/12
f 20/28/9 22/30/9 26/34/9 24/32/9
f 19/27/3 20/28/3 24/32/3 23/31/3
f 22/30/1 21/29/1 25/33/1 26/34/1
f 21/29/13 19/27/13 23/31/13 25/33/13
f 24/32/14 26/34/14 25/33/14 23/31/14
f 13/16/15 7/7/15 10/10/15 14/18/15
f 9/9/16 8/8/16 11/12/16 12/14/16
